<svg xmlns="http://www.w3.org/2000/svg" id="export" class="canvas" preserveAspectRatio="xMidYMid meet" style="" width="452" height="91"><rect id="background" fill="#fff" pointer-events="all" width="452" height="91"/><g id="origin" transform="translate(4.111001968383789, 4.111000061035156) scale(1)"><g id="clusters" class="clusters"/><g id="edge-paths" class="edge-paths"><defs><marker id="arrowhead-vee" viewBox="0 0 10 10" refX="9" refY="5" markerUnits="strokeWidth" markerWidth="8" markerHeight="6" orient="auto" style="fill: rgb(0, 0, 0);"><path d="M 0 0 L 10 5 L 0 10 L 4 5 z" style="stroke-width: 1px;"/></marker><marker id="arrowhead-vee-select" viewBox="0 0 10 10" refX="9" refY="5" markerUnits="strokeWidth" markerWidth="8" markerHeight="6" orient="auto" style="fill: rgb(238, 0, 0);"><path d="M 0 0 L 10 5 L 0 10 L 4 5 z" style="stroke-width: 1px;"/></marker></defs><path id="edge-input" class="edge-path" d="M41.16999816894531,41.11000061035156L42.83666483561198,41.11000061035156C44.50333150227865,41.11000061035156,47.83666483561198,41.11000061035156,52.48499822616577,41.11000061035156C57.133331616719566,41.11000061035156,63.09666506449381,41.11000061035156,69.05999851226807,41.11000061035156C75.02333196004231,41.11000061035156,80.98666540781657,41.11000061035156,85.63499879837036,41.11000061035156C90.28333218892415,41.11000061035156,93.61666552225749,41.11000061035156,95.28333218892415,41.11000061035156L96.94999885559082,41.11000061035156" style="stroke: rgb(0, 0, 0); stroke-width: 1px; fill: none; marker-end: url(&quot;#arrowhead-vee&quot;);"/><path id="edge-input_2" class="edge-path" d="M167.3029956817627,41.11000061035156L168.96966234842935,41.11000061035156C170.63632901509604,41.11000061035156,173.96966234842935,41.11000061035156,177.3029956817627,41.11000061035156C180.63632901509604,41.11000061035156,183.96966234842935,41.11000061035156,185.63632901509604,41.11000061035156L187.3029956817627,41.11000061035156" style="stroke: rgb(0, 0, 0); stroke-width: 1px; fill: none; marker-end: url(&quot;#arrowhead-vee&quot;);"/><path id="edge-dense_1" class="edge-path" d="M266.8569965362549,41.11000061035156L268.52366320292157,41.11000061035156C270.1903298695882,41.11000061035156,273.52366320292157,41.11000061035156,276.8569965362549,41.11000061035156C280.1903298695882,41.11000061035156,283.52366320292157,41.11000061035156,285.1903298695882,41.11000061035156L286.8569965362549,41.11000061035156" style="stroke: rgb(0, 0, 0); stroke-width: 1px; fill: none; marker-end: url(&quot;#arrowhead-vee&quot;);"/><path id="edge-dense_2" class="edge-path" d="M366.41099739074707,41.11000061035156L368.07766405741376,41.11000061035156C369.7443307240804,41.11000061035156,373.07766405741376,41.11000061035156,376.41099739074707,41.11000061035156C379.7443307240804,41.11000061035156,383.07766405741376,41.11000061035156,384.7443307240804,41.11000061035156L386.41099739074707,41.11000061035156" style="stroke: rgb(0, 0, 0); stroke-width: 1px; fill: none; marker-end: url(&quot;#arrowhead-vee&quot;);"/></g><g id="edge-labels" class="edge-labels"><text style="opacity: 1; font-family: -apple-system, BlinkMacSystemFont, &quot;Segoe WPC&quot;, &quot;Segoe UI&quot;, &quot;Ubuntu&quot;, &quot;Droid Sans&quot;, sans-serif, &quot;PingFang SC&quot;; font-size: 10px;" class="edge-label" id="edge-label-edge-input" transform="translate(61.16999816894531,51.11000061035156)"><tspan xml:space="preserve" dy="1em" x="1">?×1</tspan></text></g><g id="nodes" class="nodes"><g id="input-name-input" class="node graph-input" style="opacity: 1;" transform="translate(0,29.602500915527344)"><g class="node-item graph-item-input" transform="translate(0,0)"><path d="M5,0h31.170000076293945a5,5 0 0 1 5,5v13.015000343322754a5,5 0 0 1 -5,5h-31.170000076293945a5,5 0 0 1 -5,-5v-13.015000343322754a5,5 0 0 1 5,-5z" style="stroke: rgb(0, 0, 0); fill: rgb(238, 238, 238); stroke-width: 0px;"/><text x="6" y="15.770000457763672" style="font-family: -apple-system, BlinkMacSystemFont, &quot;Segoe WPC&quot;, &quot;Segoe UI&quot;, &quot;Ubuntu&quot;, &quot;Droid Sans&quot;, sans-serif, &quot;PingFang SC&quot;; font-size: 11px; text-rendering: geometricprecision;">input</text><title>float32[?,1]</title></g><path class="node border" d="M5,0h31.170000076293945a5,5 0 0 1 5,5v13.015000343322754a5,5 0 0 1 -5,5h-31.170000076293945a5,5 0 0 1 -5,-5v-13.015000343322754a5,5 0 0 1 5,-5z" style="stroke: rgb(51, 51, 51); fill: none; stroke-width: 1px;"/></g><g id="node-name-input_2" class="node graph-node" style="opacity: 1;" transform="translate(96.94999885559082,29.602500915527344)"><g class="node-item node-item-type node-item-type-data" transform="translate(0,0)"><path d="M5,0h60.35300064086914a5,5 0 0 1 5,5v13.015000343322754a5,5 0 0 1 -5,5h-60.35300064086914a5,5 0 0 1 -5,-5v-13.015000343322754a5,5 0 0 1 5,-5z" style="stroke: rgb(0, 0, 0); fill: rgb(85, 85, 85); stroke-width: 0px;"/><text x="6" y="15.770000457763672" style="font-family: -apple-system, BlinkMacSystemFont, &quot;Segoe WPC&quot;, &quot;Segoe UI&quot;, &quot;Ubuntu&quot;, &quot;Droid Sans&quot;, sans-serif, &quot;PingFang SC&quot;; font-size: 11px; text-rendering: geometricprecision; fill: rgb(255, 255, 255);">InputLayer</text><title>input_2</title></g><path class="node border" d="M5,0h60.35300064086914a5,5 0 0 1 5,5v13.015000343322754a5,5 0 0 1 -5,5h-60.35300064086914a5,5 0 0 1 -5,-5v-13.015000343322754a5,5 0 0 1 5,-5z" style="stroke: rgb(51, 51, 51); fill: none; stroke-width: 1px;"/></g><g id="node-name-dense_1" class="node graph-node" style="opacity: 1;" transform="translate(187.3029956817627,0)"><g class="node-item node-item-type node-item-type-layer" transform="translate(0,0)"><path d="M5,0h69.55400085449219a5,5 0 0 1 5,5v18.015000343322754a0,0 0 0 1 0,0h-79.55400085449219a0,0 0 0 1 0,0v-18.015000343322754a5,5 0 0 1 5,-5z" style="stroke: rgb(0, 0, 0); fill: rgb(51, 85, 136); stroke-width: 0px;"/><text x="6" y="15.770000457763672" style="font-family: -apple-system, BlinkMacSystemFont, &quot;Segoe WPC&quot;, &quot;Segoe UI&quot;, &quot;Ubuntu&quot;, &quot;Droid Sans&quot;, sans-serif, &quot;PingFang SC&quot;; font-size: 11px; text-rendering: geometricprecision; fill: rgb(255, 255, 255);">Dense</text><title>dense_1</title></g><g class="node-attribute" transform="translate(0,23.015000343322754)"><path d="M0,0h79.55400085449219a0,0 0 0 1 0,0v36.19000244140625a0,0 0 0 1 0,0h-79.55400085449219a0,0 0 0 1 0,0v-36.19000244140625a0,0 0 0 1 0,0z" style="stroke: rgb(0, 0, 0); fill: rgb(255, 255, 255); stroke-width: 0px;"/><text id="initializer-dense_1/kernel:0" xml:space="preserve" x="6" y="14.440000534057617" style="font-family: -apple-system, BlinkMacSystemFont, &quot;Segoe WPC&quot;, &quot;Segoe UI&quot;, &quot;Ubuntu&quot;, &quot;Droid Sans&quot;, sans-serif, &quot;PingFang SC&quot;; font-size: 9px; font-weight: normal; text-rendering: geometricprecision;"><title>float32[1,50]</title><tspan style="font-weight: bold;">kernel</tspan><tspan>〈1×50〉</tspan></text><text id="initializer-dense_1/bias:0" xml:space="preserve" x="6" y="29.535001754760742" style="font-family: -apple-system, BlinkMacSystemFont, &quot;Segoe WPC&quot;, &quot;Segoe UI&quot;, &quot;Ubuntu&quot;, &quot;Droid Sans&quot;, sans-serif, &quot;PingFang SC&quot;; font-size: 9px; font-weight: normal; text-rendering: geometricprecision;"><title>float32[50]</title><tspan style="font-weight: bold;">bias</tspan><tspan>〈50〉</tspan></text><line class="node" x1="0" x2="79.55400085449219" y1="0" y2="0" style="stroke: rgb(51, 51, 51); fill: none; stroke-width: 1px;"/></g><g class="node-item node-item-type node-item-type-activation" transform="translate(0,59.205002784729004)"><path d="M0,0h79.55400085449219a0,0 0 0 1 0,0v18.015000343322754a5,5 0 0 1 -5,5h-69.55400085449219a5,5 0 0 1 -5,-5v-18.015000343322754a0,0 0 0 1 0,0z" style="stroke: rgb(0, 0, 0); fill: rgb(112, 41, 33); stroke-width: 0px;"/><text x="6" y="15.770000457763672" style="font-family: -apple-system, BlinkMacSystemFont, &quot;Segoe WPC&quot;, &quot;Segoe UI&quot;, &quot;Ubuntu&quot;, &quot;Droid Sans&quot;, sans-serif, &quot;PingFang SC&quot;; font-size: 11px; text-rendering: geometricprecision; fill: rgb(255, 255, 255);">TanH</text></g><line class="node" x1="0" x2="79.55400085449219" y1="59.205002784729004" y2="59.205002784729004" style="stroke: rgb(51, 51, 51); fill: none; stroke-width: 1px;"/><path class="node border" d="M5,0h69.55400085449219a5,5 0 0 1 5,5v72.22000312805176a5,5 0 0 1 -5,5h-69.55400085449219a5,5 0 0 1 -5,-5v-72.22000312805176a5,5 0 0 1 5,-5z" style="stroke: rgb(51, 51, 51); fill: none; stroke-width: 1px;"/></g><g id="node-name-dense_2" class="node graph-node" style="opacity: 1;" transform="translate(286.8569965362549,0)"><g class="node-item node-item-type node-item-type-layer" transform="translate(0,0)"><path d="M5,0h69.55400085449219a5,5 0 0 1 5,5v18.015000343322754a0,0 0 0 1 0,0h-79.55400085449219a0,0 0 0 1 0,0v-18.015000343322754a5,5 0 0 1 5,-5z" style="stroke: rgb(0, 0, 0); fill: rgb(51, 85, 136); stroke-width: 0px;"/><text x="6" y="15.770000457763672" style="font-family: -apple-system, BlinkMacSystemFont, &quot;Segoe WPC&quot;, &quot;Segoe UI&quot;, &quot;Ubuntu&quot;, &quot;Droid Sans&quot;, sans-serif, &quot;PingFang SC&quot;; font-size: 11px; text-rendering: geometricprecision; fill: rgb(255, 255, 255);">Dense</text><title>dense_2</title></g><g class="node-attribute" transform="translate(0,23.015000343322754)"><path d="M0,0h79.55400085449219a0,0 0 0 1 0,0v36.19000244140625a0,0 0 0 1 0,0h-79.55400085449219a0,0 0 0 1 0,0v-36.19000244140625a0,0 0 0 1 0,0z" style="stroke: rgb(0, 0, 0); fill: rgb(255, 255, 255); stroke-width: 0px;"/><text id="initializer-dense_2/kernel:0" xml:space="preserve" x="6" y="14.440000534057617" style="font-family: -apple-system, BlinkMacSystemFont, &quot;Segoe WPC&quot;, &quot;Segoe UI&quot;, &quot;Ubuntu&quot;, &quot;Droid Sans&quot;, sans-serif, &quot;PingFang SC&quot;; font-size: 9px; font-weight: normal; text-rendering: geometricprecision;"><title>float32[50,1]</title><tspan style="font-weight: bold;">kernel</tspan><tspan>〈50×1〉</tspan></text><text id="initializer-dense_2/bias:0" xml:space="preserve" x="6" y="29.535001754760742" style="font-family: -apple-system, BlinkMacSystemFont, &quot;Segoe WPC&quot;, &quot;Segoe UI&quot;, &quot;Ubuntu&quot;, &quot;Droid Sans&quot;, sans-serif, &quot;PingFang SC&quot;; font-size: 9px; font-weight: normal; text-rendering: geometricprecision;"><title>float32[1]</title><tspan style="font-weight: bold;">bias</tspan><tspan>〈1〉</tspan></text><line class="node" x1="0" x2="79.55400085449219" y1="0" y2="0" style="stroke: rgb(51, 51, 51); fill: none; stroke-width: 1px;"/></g><g class="node-item node-item-type node-item-type-activation" transform="translate(0,59.205002784729004)"><path d="M0,0h79.55400085449219a0,0 0 0 1 0,0v18.015000343322754a5,5 0 0 1 -5,5h-69.55400085449219a5,5 0 0 1 -5,-5v-18.015000343322754a0,0 0 0 1 0,0z" style="stroke: rgb(0, 0, 0); fill: rgb(112, 41, 33); stroke-width: 0px;"/><text x="6" y="15.770000457763672" style="font-family: -apple-system, BlinkMacSystemFont, &quot;Segoe WPC&quot;, &quot;Segoe UI&quot;, &quot;Ubuntu&quot;, &quot;Droid Sans&quot;, sans-serif, &quot;PingFang SC&quot;; font-size: 11px; text-rendering: geometricprecision; fill: rgb(255, 255, 255);">TanH</text></g><line class="node" x1="0" x2="79.55400085449219" y1="59.205002784729004" y2="59.205002784729004" style="stroke: rgb(51, 51, 51); fill: none; stroke-width: 1px;"/><path class="node border" d="M5,0h69.55400085449219a5,5 0 0 1 5,5v72.22000312805176a5,5 0 0 1 -5,5h-69.55400085449219a5,5 0 0 1 -5,-5v-72.22000312805176a5,5 0 0 1 5,-5z" style="stroke: rgb(51, 51, 51); fill: none; stroke-width: 1px;"/></g><g class="node" style="opacity: 1;" transform="translate(386.41099739074707,29.602500915527344)"><g class="node-item graph-item-output" transform="translate(0,0)"><path d="M5,0h46.41600036621094a5,5 0 0 1 5,5v13.015000343322754a5,5 0 0 1 -5,5h-46.41600036621094a5,5 0 0 1 -5,-5v-13.015000343322754a5,5 0 0 1 5,-5z" style="stroke: rgb(0, 0, 0); fill: rgb(238, 238, 238); stroke-width: 0px;"/><text x="6" y="15.770000457763672" style="font-family: -apple-system, BlinkMacSystemFont, &quot;Segoe WPC&quot;, &quot;Segoe UI&quot;, &quot;Ubuntu&quot;, &quot;Droid Sans&quot;, sans-serif, &quot;PingFang SC&quot;; font-size: 11px; text-rendering: geometricprecision;">dense_2</text></g><path class="node border" d="M5,0h46.41600036621094a5,5 0 0 1 5,5v13.015000343322754a5,5 0 0 1 -5,5h-46.41600036621094a5,5 0 0 1 -5,-5v-13.015000343322754a5,5 0 0 1 5,-5z" style="stroke: rgb(51, 51, 51); fill: none; stroke-width: 1px;"/></g></g></g></svg>