<?xml version="1.0" encoding="UTF-8" standalone="no"?>
<!-- Created with Inkscape (http://www.inkscape.org/) -->

<svg
   width="1920.0px"
   height="1080.0px"
   viewBox="0 0 1920.0 1080.0"
   version="1.1"
   id="SVGRoot"
   sodipodi:docname="rectenna-pod.svg"
   inkscape:version="1.2.2 (b0a8486541, 2022-12-01)"
   xmlns:inkscape="http://www.inkscape.org/namespaces/inkscape"
   xmlns:sodipodi="http://sodipodi.sourceforge.net/DTD/sodipodi-0.dtd"
   xmlns="http://www.w3.org/2000/svg"
   xmlns:svg="http://www.w3.org/2000/svg">
  <sodipodi:namedview
     id="namedview1054"
     pagecolor="#ffffff"
     bordercolor="#000000"
     borderopacity="0.25"
     inkscape:showpageshadow="2"
     inkscape:pageopacity="0.0"
     inkscape:pagecheckerboard="0"
     inkscape:deskcolor="#d1d1d1"
     inkscape:document-units="px"
     showgrid="false"
     inkscape:zoom="0.68071577"
     inkscape:cx="968.83315"
     inkscape:cy="658.8653"
     inkscape:window-width="1440"
     inkscape:window-height="839"
     inkscape:window-x="0"
     inkscape:window-y="30"
     inkscape:window-maximized="1"
     inkscape:current-layer="layer1" />
  <defs
     id="defs1049" />
  <g
     inkscape:label="Layer 1"
     inkscape:groupmode="layer"
     id="layer1">
    <rect
       style="fill:#ffffff;stroke:#000000;stroke-width:3.79575"
       id="rect5003"
       width="176.02414"
       height="423.98373"
       x="1140.4893"
       y="1363.043"
       ry="5.8247466"
       transform="matrix(0.62466432,-0.78089339,0,1,0,0)" />
    <path
       style="fill:#ffffff;stroke:#000000;stroke-width:3"
       d="M 584.88375,292.99691 391.42864,540 H 976.2515 l 172.2973,-249.75861 z"
       id="path2020"
       sodipodi:nodetypes="ccccc" />
    <path
       style="fill:#ffffff;stroke:#000000;stroke-width:3"
       d="M 548.32894,437.40556 H 990.78932"
       id="path4949" />
    <path
       style="fill:none;stroke:#000000;stroke-width:3"
       d="m 469.78373,512.3456 56.94164,-72.70297 v 32.79971 l 43.10508,-49.61989 v -38.2163 l 40.184,-51.30685"
       id="path4794" />
    <path
       style="fill:none;stroke:#000000;stroke-width:3"
       d="m 514.50023,512.3456 56.94164,-72.70297 v 32.79971 l 43.10508,-49.61989 v -38.2163 l 40.184,-51.30685"
       id="path4796" />
    <path
       style="fill:none;stroke:#000000;stroke-width:3"
       d="m 559.36254,512.3456 56.94164,-72.70297 v 32.79971 l 43.10508,-49.61989 v -38.2163 l 40.184,-51.30685"
       id="path4798" />
    <path
       style="fill:none;stroke:#000000;stroke-width:3"
       d="m 612.37628,512.3456 56.94164,-72.70297 v 32.79971 L 712.423,422.82245 v -38.2163 l 40.184,-51.30685"
       id="path4800" />
    <path
       style="fill:none;stroke:#000000;stroke-width:3"
       d="m 657.09278,512.3456 56.94164,-72.70297 v 32.79971 l 43.10508,-49.61989 v -38.2163 l 40.184,-51.30685"
       id="path4802" />
    <path
       style="fill:none;stroke:#000000;stroke-width:3"
       d="m 701.95509,512.3456 56.94164,-72.70297 v 32.79971 l 43.10508,-49.61989 v -38.2163 l 40.184,-51.30685"
       id="path4804" />
    <path
       style="fill:none;stroke:#000000;stroke-width:3"
       d="m 754.96883,512.3456 56.94164,-72.70297 v 32.79971 l 43.10508,-49.61989 v -38.2163 l 40.184,-51.30685"
       id="path4806" />
    <path
       style="fill:none;stroke:#000000;stroke-width:3"
       d="m 799.68533,512.3456 56.94164,-72.70297 v 32.79971 l 43.10508,-49.61989 v -38.2163 l 40.184,-51.30685"
       id="path4808" />
    <path
       style="fill:none;stroke:#000000;stroke-width:3"
       d="m 844.54764,512.3456 56.94164,-72.70297 v 32.79971 l 43.10508,-49.61989 v -38.2163 l 40.184,-51.30685"
       id="path4810" />
    <path
       style="fill:none;stroke:#000000;stroke-width:3"
       d="m 897.56138,512.3456 56.94164,-72.70297 v 32.79971 l 43.10508,-49.61989 v -38.2163 l 40.184,-51.30685"
       id="path4812" />
    <rect
       style="fill:#ffffff;stroke:#000000;stroke-width:3.43384"
       id="rect4866"
       width="19.705406"
       height="26.014675"
       x="918.56805"
       y="560.05518"
       ry="5.8247466"
       transform="matrix(1,0,-0.6460711,0.76327724,0,0)" />
    <rect
       style="fill:#ffffff;stroke:#000000;stroke-width:3.43384"
       id="rect4868"
       width="19.705406"
       height="26.014675"
       x="962.64124"
       y="560.05518"
       ry="5.8247466"
       transform="matrix(1,0,-0.6460711,0.76327724,0,0)" />
    <rect
       style="fill:#ffffff;stroke:#000000;stroke-width:3.43384"
       id="rect4870"
       width="19.705406"
       height="26.014675"
       x="1006.7144"
       y="560.05518"
       ry="5.8247466"
       transform="matrix(1,0,-0.6460711,0.76327724,0,0)" />
    <rect
       style="fill:#ffffff;stroke:#000000;stroke-width:3.43384"
       id="rect4872"
       width="19.705406"
       height="26.014675"
       x="1059.4863"
       y="560.05518"
       ry="5.8247466"
       transform="matrix(1,0,-0.6460711,0.76327724,0,0)" />
    <rect
       style="fill:#ffffff;stroke:#000000;stroke-width:3.43384"
       id="rect4874"
       width="19.705406"
       height="26.014675"
       x="1105.2338"
       y="560.05518"
       ry="5.8247466"
       transform="matrix(1,0,-0.6460711,0.76327724,0,0)" />
    <rect
       style="fill:#ffffff;stroke:#000000;stroke-width:3.43384"
       id="rect4876"
       width="19.705406"
       height="26.014675"
       x="1150.0961"
       y="560.05518"
       ry="5.8247466"
       transform="matrix(1,0,-0.6460711,0.76327724,0,0)" />
    <rect
       style="fill:#ffffff;stroke:#000000;stroke-width:3.43384"
       id="rect4878"
       width="19.705406"
       height="26.014675"
       x="1200.4047"
       y="560.05518"
       ry="5.8247466"
       transform="matrix(1,0,-0.6460711,0.76327724,0,0)" />
    <rect
       style="fill:#ffffff;stroke:#000000;stroke-width:3.43384"
       id="rect4880"
       width="19.705406"
       height="26.014675"
       x="1247.8263"
       y="560.05518"
       ry="5.8247466"
       transform="matrix(1,0,-0.6460711,0.76327724,0,0)" />
    <rect
       style="fill:#ffffff;stroke:#000000;stroke-width:3.43384"
       id="rect4882"
       width="19.705406"
       height="26.014675"
       x="1293.4778"
       y="560.05518"
       ry="5.8247466"
       transform="matrix(1,0,-0.6460711,0.76327724,0,0)" />
    <rect
       style="fill:#ffffff;stroke:#000000;stroke-width:3.43384"
       id="rect4884"
       width="19.705406"
       height="26.014675"
       x="1341.323"
       y="560.05518"
       ry="5.8247466"
       transform="matrix(1,0,-0.6460711,0.76327724,0,0)" />
    <path
       style="fill:#ffffff;stroke:#000000;stroke-width:3"
       d="m 769.55913,437.40556 -2.15817,390.2926"
       id="path5005"
       sodipodi:nodetypes="cc" />
    <path
       style="fill:#ffffff;stroke:#000000;stroke-width:3"
       d="m 1031.268,361.63658 187.7554,-58.52437"
       id="path5777" />
    <text
       xml:space="preserve"
       style="font-size:27.4655px;fill:#000000;stroke:none;stroke-width:6.86639"
       x="1231.4231"
       y="308.74979"
       id="text5833"><tspan
         sodipodi:role="line"
         id="tspan5831"
         x="1231.4231"
         y="308.74979"
         style="stroke-width:6.86639">Antennae</tspan></text>
    <path
       style="fill:#000000;stroke:#000000;stroke-width:3"
       d="M 754.70009,437.40556 863.14072,252.33632"
       id="path5835" />
    <text
       xml:space="preserve"
       style="font-size:27.4655px;fill:#000000;stroke:none;stroke-width:6.86639"
       x="843.15216"
       y="238.7812"
       id="text5839"><tspan
         sodipodi:role="line"
         id="tspan5837"
         x="843.15216"
         y="238.7812"
         style="stroke-width:6.86639">Rectifier</tspan></text>
    <path
       style="fill:#ffffff;stroke:#000000;stroke-width:3"
       d="M 828.07928,663.96649 1015.8347,605.44212"
       id="path5893" />
    <text
       xml:space="preserve"
       style="font-size:27.4655px;fill:#000000;stroke:none;stroke-width:6.86639"
       x="1028.2344"
       y="611.07971"
       id="text5897"><tspan
         sodipodi:role="line"
         id="tspan5895"
         x="1028.2344"
         y="611.07971"
         style="stroke-width:6.86639">Pod tracker mount</tspan></text>
  </g>
</svg>
